<?xml version="1.0" encoding="UTF-8"?>
<svg id="Color" xmlns="http://www.w3.org/2000/svg" version="1.1" viewBox="0 0 1600 900">
  <defs>
    <style>
      .cls-1 {
        fill: #000;
        stroke-width: 0px;
      }
    </style>
  </defs>
  <path class="cls-1" d="M271.51.09l-1.01,701.44,198.63-2.34,15.16-106.48s-1.42-7.39,5.02-9.71c.09,0-16.01-17.38-13.17-42.96,1.52-10.61,53.81-3.41,53.81-3.41l14.4,1.52s-7.39-22.36,24.63-24.44c32.02-2.08,84.88,1.14,121.64,17.81l233.43.76s30.51-18.95,100.8-18.76c37.71,0,41.49,8.72,41.49,8.72,0,0,4.74,2.46,2.46,16.67,2.08,0,33.73-3.22,33.73-3.22,0,0,35.91-4.74,35.24,6.06,0,0,2.08,27.66-13.64,40.74.55.29,5.03,2.69,5.78,7.63.34,2.29-.25,4.17-.66,5.16,1.23,6.73,16.2,103.83,16.2,103.83h73.11V.09H271.51Z"/>
  <path class="cls-1" d="M485.61,672.96l6.25-54.76s1.33,18.57,20.08,20.46,27.66,2.65,27.66,2.65v5.87s-26.91,1.52-31.26,11.18-1.89,14.59-1.89,14.59h-20.84Z"/>
  <polygon class="cls-1" points="481.82 699.2 481.82 695.22 532.6 695.22 532.13 699.2 481.82 699.2"/>
  <polygon class="cls-1" points="541.32 699.2 542.07 694.18 567.84 694.18 567.84 699.2 541.32 699.2"/>
  <polygon class="cls-1" points="587.86 699.2 592 694.01 597.87 694.01 597.78 699.2 587.86 699.2"/>
  <rect class="cls-1" x="608.96" y="691.95" width="15.11" height="7.06"/>
  <rect class="cls-1" x="633.97" y="691.01" width="5.07" height="8.01"/>
  <polygon class="cls-1" points="646.95 690.96 646.95 699.01 682.9 699.01 682.9 689.92 646.95 690.96"/>
  <path class="cls-1" d="M709.95,643.02h-35.91v1.8s16.71,1.86,20.97,7.83,2.75,11.43,2.75,11.43c0,0-.82,3.53-4.33,4.1l2.3,30.83h18.66l-4.45-55.99Z"/>
  <path class="cls-1" d="M742.6,564.39l-47.72-2.56c-.93,2.52-3.52,6.87-7.06,10.61-4.82,5.09-10.22,7.02-15.4,8.87-3.56,1.27-8.95,2.8-15.81,3.26.05.43.12,1.05.17,1.79.3,4.94-.76,8.73-1.59,11.56-.72,2.47-1.9,5.74-3.88,9.38l56.69,1.47c.27,0,.54,0,.8-.02,1.22-.1,3.36.21,5.77,1.04,4.14,1.43,5.3,5.66,5.73,6.82.74,2.02.87,3.9.78,5.38-.09,1.61-1.42,2.93-3.03,2.95-.01,0-.02,0-.03,0-1.01,0,5.24,74.05,5.24,74.05h6.57l12.76-134.62Z"/>
  <path class="cls-1" d="M870.56,564.52l13.64,134.49h4.8l5.87-73.52s-3.51.66-3.51-3.41.76-5.97.76-5.97c0,0,3.22-5.78,10.14-6.44s60.73-2.65,60.73-2.65c0,0-6.66-13.01-6.09-21.92,0,.19-34.39-3.76-38.46-23.18-4.74.28-47.87,2.59-47.87,2.59Z"/>
  <polygon class="cls-1" points="1080.18 694.08 1080.18 699.48 1132.38 699.48 1132.38 695.22 1080.18 694.08"/>
  <polygon class="cls-1" points="1047.97 694.08 1047.97 699.11 1072.13 699.48 1072.13 694.08 1047.97 694.08"/>
  <polygon class="cls-1" points="1016.04 693.42 1016.04 699.48 1025.8 699.48 1021.92 694.08 1016.04 693.42"/>
  <rect class="cls-1" x="989.99" y="692.09" width="14.02" height="6.92"/>
  <rect class="cls-1" x="973.98" y="692.09" width="6.16" height="6.92"/>
  <polygon class="cls-1" points="931.73 690.96 931.06 699.01 965.93 699.01 965.93 690.96 931.73 690.96"/>
  <path class="cls-1" d="M903.31,642.96l-4.36,56.05h19.8l1.33-30.79s-4.93-.85-4.55-4.93,1.61-16.48,20.56-18.09c.09-.47,0-1.23,0-1.23l-32.78-1.01Z"/>
  <path class="cls-1" d="M1074.02,641.03v5.68s31.45,2.84,32.97,14.68l.85,11.84,21.03.66-5.97-52.2-2.08.57s3.88,19.14-46.8,18.76Z"/>
</svg>