<?xml version="1.0" encoding="UTF-8"?>
<svg id="Capa_2" data-name="Capa 2" xmlns="http://www.w3.org/2000/svg" viewBox="0 0 1600.34 900">
  <defs>
    <style>
      .cls-1 {
        fill: #000;
        stroke-width: 0px;
      }
    </style>
  </defs>
  <path class="cls-1" d="M1216.5,589.5l-12-3,27-103s0-6-21-8-38.96,0-38.96,0V212.5h-7.04l-39,27v263.88l-3.41,3.41v-25.33s2.15-8.72,1.77-9.54c-.38-.82-.41-3.79-14.53-4.83-14.12-1.04-35.19,3.32-35.19,3.32l-.82-194.68h-74.54v208.17l-35.12-8.34v-3.28h-21.22s.51-11.24,10.11-13.52c.51-.76,0-1.8,0-1.8l-37.55-.41-5.26-4.39-26.79-.58.88-301.33h-12.69c-.85-3.01-1.72-6.05-2.61-9.09-.96-3.29-1.92-6.55-2.89-9.79h133.14v98.27h123.54v-27.28l95.75-70.99h381.94l.34,456.15-383.84,1.98Z"/>
  <path class="cls-1" d="M448.34,132.12v342.57h19.96l33.54,13.45,17.15,20.94-7.96-35.91s-.66-6.92,20.46-6.35c21.13.57,32.78,8.05,32.78,8.05,0,0,6.61,4.72,11.98,12.23,2.66,3.73,5.77,7.13,9.4,9.92,4.58,3.52,8.45,5.06,19.93,6.27l-5.12-5.31v-4.93l5.12-1.01V151.64h161.49c.24-2.68.74-5.91,1.77-9.47,1.18-4.08,2.7-7.45,4.11-10.04h-324.6Z"/>
  <rect class="cls-1" x="327.23" y="88.04" width="71.24" height="517.26"/>
</svg>