<?xml version="1.0" encoding="UTF-8"?>
<svg id="Capa_1" data-name="Capa 1" xmlns="http://www.w3.org/2000/svg" viewBox="0 0 1599.64 900">
  <defs>
    <style>
      .cls-1 {
        stroke-width: 0px;
      }
    </style>
  </defs>
  <path class="cls-1" d="M1580.83,900l-223.56-103.67-.14-7.41-2.69-.14-1.21-.94-.94-3.64-1.48-1.75-10.24-5.79-43.65-18.72-69.91-30.98-7.14-3.1v.81l-.07,1.08s-5.59,2.36-8.55-3.17c0,0-2.42-6.33,4.38-8.08,6.8-1.75,6.47,5.93,6.47,5.93l126.2,55.39,4.4,2.67s3.7-.2,4.31,1.01c-.07-.07-.09-82.35-.09-82.35,0,0-1.23.67-1.75,1.41-.52.74-1.33.47-1.33.47l-.9.79s-14.57.61-17.98-.61c-.54-.18-3.46-8.8-3.46-8.8l8.04-2.65s-.58-1.39-10.1-3.73c-9.52-2.34-90.25-26.13-90.25-26.13l-16.07-4.4c-.14.58-.57,1.97-1.82,2.74-1.83,1.14-4.76.54-6.8-1.78-.35-.42-1.33-1.71-1.41-3.6-.11-2.57,1.5-4.26,1.78-4.55,2.45-1.6,5.45-1.5,7.31.1h0c1.65,1.43,1.8,3.52,1.82,4.01,28.48,8.51,56.95,17.02,85.43,25.54l22,5.39s10.51,3.68,13.83,5.21c.99.18,2.61-.18,2.61-.18l.45-.54,3.86.45.54.63,3.77.09.81.9.72-1.53,27.75.54,213.91,57.3V0l-369,240.13-904.42-8.89L0,19.48v879.37l177.1-84.06-.67-42.03-8.62,3.23-9.03.27.94-16.7,7.01-2.83,4.98-1.62h4.85l4.58-471.34,144.27,56.58-2.02,405.74,453.02,2.42,3.73-69.87h6.87v-5.93h8.35v6.02l42.12-.18v-19.85l209.78.54,41.67,20.66-.9,61.43,11.23,7.72,1.35-.45,101.39.36v-2.07l-1.08-4.76-2.96-.18-.72-.63-3.23-1.52-.36-15.9,15.72.36,4.04,1.35v15.8l-6.56.63s.72,3.68.27,6.64c.09.27,15.45.54,15.45.54,0,0-.36-.9.72-.99s5.03.09,5.03.09l304.13,151.67h48.39ZM1229.84,626.2h15.48v-334.88l-2.69,1.62-4.85-.54v-14.41l1.95-1.08-.27-1.14,3.17-1.75h3.1l101.71-55.64.14-2.56,5.25-2.9h4.11l158.82-87.49-.67-2.63,8.35-4.98h5.19l8.22-4.38,14.01,2.36,6.87-3.23h2.96v270.09s.45,15.8,1.17,23.17,2.69,23.35,2.69,23.35c0,0,.36,6.83-2.51,11.67-.72,1.98-4.31,251.99-4.31,251.99l6.84,1.98v5.39l-6.84.36.54,5.39s.36.72-.18,2.51-.36,2.61-.36,2.61h-4.58v4.18h-5.39l-305.92-75.57v-7.54l-11.99-2.83v-3.09ZM157.3,497.69l-1.35.94-18.32-.81h-2.02v-42.57l21.69,1.48v40.95ZM733.1,708.82c0,.57-.48,1.03-1.05,1.03h-14.16c-.59,0-1.06-.48-1.05-1.06l.28-18.61c0-.57.48-1.03,1.05-1.03h14.16c.59,0,1.06.48,1.05,1.06l-.28,18.61ZM780.59,500.99h0s-.61.07-.61.07l-.67,2.29h-1.82v-14.57c0-.42.47-.65.81-.41l2.29,1.65v10.98ZM783.62,484.28h0s-5.39,0-5.39,0v-17.53h3.57v12.61h1.82v4.92ZM1013.59,633.11c0,.45-.36.81-.81.81h-7.54c-.45,0-.81-.36-.81-.81v-10.6c0-.45.36-.81.81-.81h7.54c.45,0,.81.36.81.81v10.6ZM1089.29,670.29l-36.28-17.78,1.26-51.37h13.02l22.99,6.83-.99,62.33h0ZM1090.28,602.45h0s-30.98-7.33-30.98-7.33v-4.85l-5.7-2.38v-.81h7.72v-201.57l-2.02,1.17-3.59-1.17v-7.54l36.91-19.71-2.34,244.18ZM1186.73,711.87c0,.79-.64,1.44-1.44,1.44h-13.38c-.79,0-1.44-.64-1.44-1.44v-17.87c0-.79.64-1.44,1.44-1.44h13.38c.79,0,1.44.64,1.44,1.44v17.87Z"/>
</svg>