<?xml version="1.0" encoding="UTF-8"?>
<svg xmlns="http://www.w3.org/2000/svg" viewBox="0 0 1517.91 719">
  <defs>
    <style>
      .cls-1 {
        stroke-width: 0px;
      }
    </style>
  </defs>
  <g id="cama">
    <polygon class="cls-1" points="1357.89 641.03 1380.92 641.03 1380.92 640.04 1380.06 640.04 1380.06 638.9 1376.98 638.9 1376.98 638 1374.99 638 1374.99 637.05 1374.05 637.05 1374.05 635.96 1373.01 635.96 1373.01 635.06 1371.92 635.06 1371.92 634.07 1370.97 634.07 1370.97 632.93 1370.02 632.93 1370.02 631.98 1368.93 631.98 1368.93 630.99 1368.03 630.99 1368.03 628.94 1366.89 628.94 1366.89 628.01 1365.85 628.01 1364.81 628.01 1364.81 629.85 1363.96 629.85 1363.96 632.88 1362.92 632.88 1362.92 634.97 1361.97 634.97 1361.97 636.86 1360.88 636.86 1360.88 637.95 1359.93 637.95 1359.93 639.04 1357.89 639.04 1357.89 641.03"/>
    <polygon class="cls-1" points="1365.22 589.49 1368.88 606.33 1365.22 616.68 1360.8 605.19 1365.22 589.49"/>
    <path class="cls-1" d="M1370.84,596.09l-1.96-19.58,7.45-20.46h1.01l1.52,6.06c-.73,4.62-1.65,9.48-2.78,14.53-1.57,6.99-3.36,13.49-5.24,19.45Z"/>
    <path class="cls-1" d="M1381.89,572.98h.76c2.54,7.86,4.99,17.51,6.44,28.67,1.65,12.68,1.57,23.86.88,32.87-.97.75-1.94,1.5-2.91,2.25-2.29-2.56-4.88-5.94-7.2-10.23-4.02-7.43-5.48-14.37-6.06-19.07v-2.59l8.08-31.89Z"/>
    <path class="cls-1" d="M1362.06,562.94h.63l.88,15.47-3.54,12.76h-.76c-.58-4.09-.93-9.56-.13-15.92.62-4.88,1.75-9.03,2.91-12.32Z"/>
    <path class="cls-1" d="M1358.69,612.77h.98l3.92,8.34c-.39,1.58-.91,3.33-1.64,5.18-1.23,3.12-2.69,5.69-4.04,7.71h-.88c-.1-3.2-.05-6.76.25-10.61.31-3.89.82-7.44,1.42-10.61Z"/>
    <path class="cls-1" d="M1370.02,614.79h1.89l7.96,20.34v.88h-1.01c-2.37-1.84-5.09-4.31-7.71-7.58-1.29-1.62-2.38-3.19-3.28-4.67.04-.16,1-4.16,1.03-4.32.04-.18,1.07-4.46,1.11-4.65Z"/>
  </g>
  <g id="vector">
    <path class="cls-1" d="M1059.85,501.29c.06-13.96.13-27.92.19-41.87l18.57-20.08,4.17-2.65-30.69-24.63.19-16.86,3.41-14.4v-8.34l-205.96.95-3.03-1.33-20.46-.38-2.65-1.71-78.06-4.93v3.98l-1.89-.76-8.72,2.27h-7.96l-59.31,3.79-194.97,4.45-23.4,1.14-.95.76h-11.94l5.12,16.77-.76,10.89-17.08,6.09-11.62,7.83c-4.8,3.63-9.6,7.26-14.4,10.89-.18.33-1.11,2.12-.38,4.07.3.81.79,1.37,1.14,1.71l10.61,8.84,1.26,5.31,6.06,5.05v2.78l7.58,22.23,2.27,3.54-.76,6.32-.76,19.45-3.92,9.47c-16.31,10.15-29.51,18.27-41.12,25.2-5.06,3.02-12.1,7.17-19.89,14.59-4.61,4.38-6.46,7.03-11.56,12.88-9.6,11.02-16.79,17.42-20.84,21.41-8.34,8.22-20.1,22.73-35.31,50.34l2.53-547.2-233.43-.51-4.17,620.15H10.74l-4.42.19-6.32-89.05s7.58-22.48,5.05-28.8c4.04-8.34,5.68-36,5.68-36L5.05,0h1512.85v719h-93.88v-.85l3.13-3.13v-1.2h-3.13v-6.44h7.45v-3.28h-2.27v-8.02h3.47v-1.96h6.38v-14.02h.95v-1.14h3.79v-1.01h9.22v-1.07h5.94v-1.89h-2.91v-9.79h2.53v-1.26h-.51v-1.14h-13.2v-13.99h-39.79v-5.81h-1.18v-.97h-3.92v-1.03h-9.99v-1.92c1.56-1.48,3.11-2.96,4.67-4.44,2.2-2.93,5.02-7.34,7.11-13.2,2.28-6.39,2.81-12.03,2.87-15.85v-19.48c0-1.87-.09-4.71-.66-8.11-1.03-6.21-2.99-10.45-6.1-17.19-2.69-5.83-4.1-7.71-5.21-9-.85-.98-2.84-3.16-5.97-5.21-2.97-1.95-5.77-3.01-7.77-3.6v-15.25l51.16-.76-.09-.85h1.14v-1.52l-10.8-75.69h-86.4l-12.69,76.17h1.52l.38.76h4.93l.38,1.04h15.16l.19.95h29.46v14.97c-.86-.04-4.03-.09-6.82,2.18-4.03,3.28-3.64,8.45-3.6,8.91-2.24,4.53-4.77,10.88-6.16,18.76-1.97,11.21-.77,20.61.47,26.53-1.71,6.11-3.27,13.22-4.26,21.22-.75,6.02-1.06,11.6-1.11,16.64h1.07v1.01h1.01v3.28h-4.86v.51h-1.14v.88h-.88v.95l-37.89,7.52v1.89h3.16v10.67h-2.21v1.26h-.88v12h9.92v6.06l-4.17.95v2.02l10.11,2.97v7.96l3.85,3.22-7.86,3.79v.92h-1.01v.95h-1.29s-.33,13.31,0,12.98c.33-.33-82.52,0-82.52,0l-17.72-37.71h4.74v1.33h2.84l.19-3.03h1.14c-1.94-21.57-8.68-35.88-13.83-44.34-3.56-5.86-7.65-11.04-15.54-21.03-4.88-6.19-11.33-14.37-19.89-23.49-7.59-8.1-18.27-18.46-32.4-29.37h-.88v-1.39h1.07v-2.91h-1.01v-1.71h-1.14v-5.56h-.88v-.76h-1.07v-.82h-1.07v-2.08h-.69v-.88h-2.08v.88h-.88v-1.01h-2.91v1.2h-1.14v-1.14h-2.91v-2.91h-1.89v-1.89h-3.03v-2.27h-1.26v-4.17h-1.83v-.88h-1.96v.95h-2.08v1.07h-2.02v-1.89h-1.14v-1.07h-1.07v-1.01h-1.71v-1.2h-1.96v-5.75h-1.2v-.76h-.95v-1.2h-1.96v-1.2l-.92-.92h-1.36v-.98h-11.05v-1.14h-1.45v-.88h-3.16v-3.85h.82v-2.08h-1.01v-.88h-.88v-2.08h-9.09v-1.96h-.95v-.88h-2.02v-1.07h-2.97v-1.26h-8.78v-.95c-1.12-.19-2.23-.38-3.35-.57Z"/>
    <path class="cls-1" d="M747.09,376.12v3.85h-1.39v4.04h-.82v5.68h-1.01v2.08h-.95v2.02h-1.01v4.86h-1.07v12.44c.6.8,1.29,1.85,1.89,3.16.63,1.35,1,2.6,1.23,3.6h3.82c.52-1.24,1.35-2.86,2.65-4.55,1.28-1.66,2.61-2.85,3.66-3.66v-8.53l.57-.06v-.95h1.45v-3.13h-.57c-.58-1.15-1.15-2.34-1.71-3.57-2.15-4.73-3.79-9.29-5.05-13.58v-3.73h-1.71Z"/>
    <path class="cls-1" d="M1367.87,562.94v-12.69c.36-2.32,2.48-3.56,3.98-3.09,1.09.34,1.92,1.6,1.96,3.09v2.02l-4.86,10.67h-1.07Z"/>
    <polygon class="cls-1" points="1378.86 551.95 1380.88 551.95 1380.88 549.04 1379.87 549.04 1379.87 550.02 1378.86 550.02 1378.86 551.95"/>
    <polygon class="cls-1" points="1384.93 550.05 1384.93 559.78 1383.79 559.78 1383.79 562.24 1384.93 562.24 1384.93 564.83 1385.94 564.83 1385.94 568.05 1386.95 568.05 1386.95 571.97 1388.15 571.97 1388.15 574.87 1388.84 574.87 1388.84 580.05 1389.85 580.05 1389.85 583.02 1390.99 583.02 1390.99 587.25 1392.06 587.25 1392.06 594.96 1393.01 594.96 1393.01 600.89 1393.96 600.89 1393.96 608.03 1394.78 608.03 1394.78 628.94 1395.92 628.94 1395.92 627.04 1397.05 627.04 1397.05 624.01 1397.87 624.01 1397.87 622.05 1398.88 622.05 1398.88 619.15 1399.77 619.15 1399.77 616.24 1400.78 616.24 1400.78 610.75 1401.98 610.75 1401.98 587.06 1400.91 587.06 1400.91 580.12 1399.77 580.12 1399.77 575.88 1399.14 575.88 1399.14 572.79 1397.94 572.79 1397.94 569.95 1397.05 569.95 1397.05 565.97 1395.98 565.97 1395.98 564.07 1394.78 564.07 1394.78 561.93 1394.15 561.93 1394.15 559.08 1392.88 559.08 1392.88 558.01 1392.13 558.01 1392.13 556.05 1390.86 556.05 1390.86 554.99 1390.11 554.99 1390.11 552.96 1389.16 552.96 1389.16 551.95 1388.08 551.95 1388.08 551 1387.07 551 1387.07 550.05 1384.93 550.05"/>
  </g>
</svg>