<?xml version="1.0" encoding="UTF-8"?>
<svg id="Color" xmlns="http://www.w3.org/2000/svg" viewBox="0 0 1600.01 900">
  <defs>
    <style>
      .cls-1 {
        fill: #000;
        mix-blend-mode: multiply;
        stroke-width: 0px;
      }

      .cls-1, .cls-2 {
        isolation: isolate;
      }
    </style>
  </defs>
  <g class="cls-2">
    <g id="Color-2" data-name="Color">
      <path class="cls-1" d="M1499.61,0v50.92h7.58v3.79h-134.4l-56.34,49.77v-22.86l-1080.38-3.79v29.18l-40.55-36.76-17.05-17.05H58.22v-5.81h7.71V0H0v348.06l233.19.82-1.2,272.11-2.97.07c-.22,16.11-.29,32.49-.19,49.14.08,13.79.28,27.4.58,40.82.14,31.46.28,62.92.41,94.38h73.71l48.51-23.68h104.21l.13-37.07,22.86-10.86h68.72l2.78-541.64,458.21-1.2v539.28l83.46,1.57,8.31,8.79v42.37h123l32.21,15.06,63.19-.85,1.89-180.19-3.13.09,1.74-269.12,217.35.13-1.01,337.01h15.82v5.12h-1.14v5.68h49.36V0h-100.4ZM431.86,282.33c-4.54-1.19-10.76-2.33-18.19-2.27-6.95.05-12.81,1.13-17.18,2.27-.21-25.1-.42-50.19-.63-75.29,4.2-1.43,10.84-3.12,19.07-2.9,7.18.19,13.01,1.76,16.93,3.16v75.03ZM1123.57,281.44l-.88-74.78s1.01-3.79,18.95-4.17,16.04,4.17,16.04,4.17l.76,73.64-34.86,1.14h-.01Z"/>
    </g>
  </g>
</svg>