<?xml version="1.0" encoding="UTF-8"?>
<svg xmlns="http://www.w3.org/2000/svg" xmlns:xlink="http://www.w3.org/1999/xlink" viewBox="0 0 1600 900">
  <defs>
    <style>
      .cls-1 {
        stroke-width: 0px;
      }
    </style>
  </defs>
  <g id="cama">
    <image width="1600" height="900" xlink:href="../../sala.jpg"/>
  </g>
  <g id="vector">
    <path class="cls-1" d="M131.11,380.22h64.8v5.78h-18.85l-12.03,351.09h-16.99l-10.61-76.58s-1.01-7.07-.76-14.4l-5.56-265.89Z"/>
    <path class="cls-1" d="M1065.34,534.07h-128.21l-10.07,6.95v67.99h-8.97v2.97h8.97v4.96h-8.97v3h8.97v4.86h-9.13v3.19h8.97v4.07h-8.94v3.09h9.09v4.74h-9.16v3.06h9.16v5.05h-9.06v3.03h9.06v4.99h-9.03v3.03h8.87v4.99h-8.87v2.97h9.03v4.07h-9.09v3.85h8.97v3.98h-8.91v3.09h8.91v4.99h-8.97v2.97h9.09v4.99h-9.09v3.03h8.97v4.89h-8.91v2.24h9.03v5.81h-9v2.08h9v4.93h-9v3.06h8.81v4.89h-8.87v3.13h9.06v4.74h-9.63v1.33h-100.23v-1.04c-2.71.01-5.41.02-8.12.03,1.57-.74,3.14-1.47,4.71-2.21.41-.16.67-.56.63-.98-.03-.37-.28-.69-.63-.82-.3-.15-.62-.3-.97-.44-1.25-.49-2.42-.66-3.35-.7h-27.41v-19.5s-27.57.27-27.57.27l-21.32-26.53h-2.37l.19,2.27,20.08,24.44-11.08.09v24.06l-2.75.09v.85h-4.36v.95l-11.75.09v.76l-7.39-.09-62.43,1.23-7.77.28c-15.92,0-17.34,3.13-17.34,3.13h-17.17l-5.19-130.17c2.37-.95,4.74-1.89,7.11-2.84,2.4-1,3.81-2.28,3.6-3.03-.25-.9-2.78-.95-3.03-.95-17.36-.03-31.38,1.2-41.12,2.37-18.18,2.17-24.95,4.52-37.14,1.89-11.54-2.49-20.71-7.87-26.34-11.18-8.9-5.23-15.58-10.77-20.12-15l-5.68-50.91h-3.03l-1.77-12.25-5.05-4.42-75.54,5.68-115.42.82c-.73.35-1.8.91-3.03,1.71-1.58,1.02-2.38,1.54-2.56,2.18-.56,1.97,3.35,4.53,3.54,4.64v4.04c-1.31-.18-3.7-.32-6.38.69-1.31.5-2.34,1.14-3.09,1.71-.15,2.2-.23,4.54-.22,7.01.02,4.06.31,7.81.73,11.18l2.91,14.4.88,12-6.32,157.01h-30.82l-13.77-352.17h-21.22v-5.18h63.66l31.07-1.89-14.91-103.07-25.64-.66h-125.75L122.77,0h1477.23v536.73h-26.24v-.85h-.81v-.81h-1.75v-1.04h-2.18v.9h-1.85v-2.94h-2.94v-1.94h-2.23v-.9h5.97v-1.18h-.99v-1.85h-2.98v.85h-4.07v.9h-4.83v1.18h-1.09v.76h.9v2.08h-.81v1.14h.71v1.28h-32.02l7.2-76.41c.31-1.35.77-4.28-.32-7.71-.02-.06-.04-.11-.05-.17-.93-2.8-3.01-5.04-5.61-6.42-2.93-1.55-6.78-4.17-10.12-8.44-2.63-3.36-4.09-6.67-4.93-9.09-.38-8.4-.76-16.8-1.14-25.2h3.17v-1.71h-2.7v-1.18h2.7v-.99h-1.99l-1.04-3.03h-14.87l-1.28,2.84h-.9v1.23h1.04v.95h-1.09v1.09h1.04v.9h1.8l-3.03,25.29c-.45,1.9-1.3,4.36-2.94,6.88-3.12,4.81-7.47,7.31-10.41,8.56-2.76,1.18-5.15,3.14-6.6,5.76-.01.02-.03.05-.04.07-2.95,5.4-1.62,10.84-1.23,12.25,2.12,24.82,4.23,49.64,6.35,74.46h-147.98l3.98-4.74-3.98-4.17-32.4-1.52-61.39-.95c.57-.85,9.65-14.87,2.72-30.38-4.68-10.47-14.84-17.56-26.4-18.44-1.8-.11-16.24-.78-26.15,10.48-8.16,9.28-9.99,22.95-4.64,34.83-11.15-.92-22.29-1.83-33.44-2.75l-5.31,4.26-3.13,14.21-48.88-.47c2.07-.73,15.01-5.53,20.75-19.52,4.67-11.39,1.57-21.57.66-24.25-5.2-11.5-16.11-19.33-28.45-20.34-13.64-1.12-26.84,6.28-33.32,18.73-.91,1.71-6.62,12.88-1.8,25.99,4.93,13.4,16.93,18.15,18.69,18.82Z"/>
    <polygon class="cls-1" points="279.91 734.16 279.91 738.45 357.21 738.45 357.21 731.88 279.91 734.16"/>
    <polygon class="cls-1" points="370.98 731.88 370.98 738.45 467.61 739.21 467.61 728.85 370.98 731.88"/>
    <polygon class="cls-1" points="480.12 739.84 480.12 728.09 595.82 725.06 595.82 741.36 480.12 739.84"/>
    <path class="cls-1" d="M490.09,606.96c4.62,2.55,11.3,5.92,19.71,9.09,5.37,2.03,9.23,3.49,14.66,4.57,7.96,1.59,14.04,1.33,23.61.86,1.75-.09,9.55-.49,20.53-2.15,6.58-.99,15.11-2.55,25.01-5.12v72.19c-3.34-1.44-7.46-2.92-12.29-4-3.78-.85-7.24-1.29-10.26-1.5-21.6.51-43.2,1.01-64.8,1.52-1.6-4.65-3.14-9.65-4.55-14.97-2.02-7.6-3.48-14.78-4.55-21.41-.17-5.7-.73-12.28-2.02-19.52-1.34-7.48-3.17-14.05-5.05-19.58Z"/>
  </g>
</svg>