<?xml version="1.0" encoding="UTF-8"?>
<svg id="color" xmlns="http://www.w3.org/2000/svg" viewBox="0 0 1600 900">
  <defs>
    <style>
      .cls-1 {
        fill: #1d1d1b;
        stroke-width: 0px;
      }
    </style>
  </defs>
  <polygon class="cls-1" points="334.78 726.17 334.78 719.52 322.65 707.78 321.09 726.17 334.78 726.17"/>
  <polygon class="cls-1" points="299.17 640.09 303.35 640.09 299.17 726.17 289.91 726.17 299.17 640.09"/>
  <path class="cls-1" d="M265,726.17h-46.04l.13-185.09h-2.48v-88.08h2.43v-1.17h-2.1v-5.87h3.08v-1.04h1.03v-.98h.98v1.04h.98v.98h2.02v-.98h1.01v-1.04h1.08v1.08h3.91v-1.08h2.05v1.01h3.88v-1.01h1.01v-1.01h1.08v-1.99h-3.08v-.99h-5.97v-1.98h9.05v-1.96h4.97v-4.01h-9.02v-.98h-2.02v.93h-5.98v1.06h-2.98v-.99h-5.01v.99h-2.01v-3.96h12v-1.04h-4.96v-1.14h-7.04v-9.82h5.02v-1.08h-5.02v-3.03h1.01v-.98h3.16v-1.01h2.87v-1.01h-5.93v1.01h-.78V0h1291.76v259.61l4.7,150-1.83,143.22-2.61,173.35h-32.87l-24.92-177.75,27.53-1.34s8.61-1.17,8.61-5.22-.52-8.22-.52-8.22c0,0-2.09-4.04-16.7-4.04s-12.52-.13-12.52-.13l.39-102.78.26-1.57,5.35.26,1.43-2.22,15.26,9.91h6.13l7.04,5.61,4.04-.13-1.96-6-1.04-.91-.52-5.61c-3.89-4.38-9.76-9.97-18-14.74-4.67-2.7-9.09-4.57-12.91-5.87,2.78-2.35,5.57-4.7,8.35-7.04l.13-6.91c2.41.25,5.49.33,9-.13,2.68-.35,5-.95,6.91-1.57.13-.3.26-.61.39-.91l6.52-.52,12.26-9.91.13-3,2.87-.78-5.61-4.57-2.09-.13-16.3-10.04-5.09-1.43c-1.74-1.01-3.83-2.03-6.26-2.87-6.24-2.16-11.84-2.17-15.52-1.83-1.66-1.1-3.36-2.27-5.09-3.52-1.68-1.21-3.28-2.42-4.81-3.62-1,.04-1.76.06-2.76.1l-6.39,5.87-.65-2.35,13.7-21.78,11.74-19.7v-6.78l-3.13,2.22-7.7,1.04-3.52,6.39-4.96,2.22-9.39,7.57s-12.91,4.17-13.83,35.22c.13.13-.39,1.57-.39,1.57l-7.57-4.04-2.22.13-2.48.65c.26-4.18.42-8.61.42-13.27,0-4.83-.15-9.41-.42-13.73h-1.83c.02-.92-.08-2.32-.68-3.88-1.03-2.65-2.91-4.14-3.75-4.73-1.02-5.2-2.92-11.92-6.62-19.14-6.24-12.17-14.59-19.92-19.99-24.16-1.65,1.83-3.3,3.65-4.96,5.48l-3,.26-8.22,11.22c-1.02,4.8-2.71,16.1,2.22,28.83,6.12,15.8,17.9,22.07,13.79,20.17-.53-.34-1.38-.88-1.9-1.21l-6.28-5.26-9-.13c-3.78-2.16-8.6-4.45-14.41-6.23-9.7-2.97-18.27-3.31-24.24-3.04-.13.72-.11.6-.23,1.32l9.54,4.03,4.17,5.74,1.7,2.22.39,3,.91.39,1.7,4.7,1.43,2.87s1.83,2.22,5.09,2.22c2.09,2.61,10.3,9.13,10.3,9.13l-.91,1.35s-7.17-1.74-11.61,2.3c-.52.26-12.78-1.57-15.39,2.35l-1.7.39-.39,3.39,1.43-.13s-1.3,12.13,14.35,12.26c1.43.52,2.48.26,2.48.26v1.17l8.87-.26s9.65-3.13,13.04-2.09c3.39.91,5.61,1.04,5.87,1.83.26.78,3.91,6.13,3.91,6.13l-2.61-.13s-4.83-3.52-12.91-3.26-18.26-.78-18.26-.78l-10.04-3.52-13.83,1.7-4.57-1.04-4.17.26-6.65-3.52-2.09.13.91,4.17,2.35.39s1.17,5.09,23.35,8.48c-.13,1.7,0,3.91,0,3.91,0,0-3.78,5.22,2.09,4.7,5.87-.52,13.17-3.78,13.17-3.78l6.13,1.96,9.13-.65c4.91,1.09,10.42,2.71,16.24,5.18,2.15.91,4.17,1.87,6.07,2.84-3.08-.38-24.17-2.83-38.64,3.23-2.79,1.17-7.54,3.16-11.84,7.92-2.92,3.24-4.52,6.53-5.4,8.73.28.47.39.65.68,1.11l3.67.33,3.13-1.3,2.35-.26c1.79.26,4.83.47,8.38-.49,4.49-1.22,7.45-3.67,8.84-4.99-.09,35.35-.17,70.7-.26,106.04,0,0-25.43.26-25.57,2.74-.13,2.48-.26,11.74-.26,11.74l27.65,4.04-27.52,178.43-66.65.39s1.96-2.35,2.35-5.61c2.48,0,8.48-.13,8.48-.13,0,0,4.3,1.17,8.48-14.09,4.17-15.26,6.13-37.04,6.13-37.04,0,0,27.39,7.3,43.7-4.17-.52-5.35-21.78-108-21.78-108l2.22-1.57-.39-15.39s-7.7-6.91-8.09-15.39c1.96-2.09,4.43-6.26,4.43-6.26l-.13-3.65-16.43-33.52c-2.02-3.29-4.56-6.85-7.78-10.41-9.86-10.93-21.14-16.49-28.61-19.33-5.4-1.47-13.58-2.99-23.43-2.09-6.3.57-11.61,1.97-15.7,3.4,0,0-2.35-11.22-19.83-4.17-.52-1.17-.91-8.22-.91-8.22,0,0,5.09-3.39,4.96-8.09-.13-4.7-16.57-6.91-16.57-6.91l-63-.78s-25.04,1.7-37.7-1.3c-13.43-.26-23.74,1.3-23.74,1.3l-28.3-1.96s-8.35-.26-11.74,2.35h-36.26l-3,1.43-16.57-1.96-37.96-1.43s-68.22-3-79.04,0c.13.26-1.57,1.04-4.17.78-1.42-.14-5.67-.01-9.25.13-4.08.17-8,1.7-11.07,4.4-1.01.89-1.78,1.72-1.86,2.25,0,0,.39,2.48,2.61,6.39,2.22,3.91,4.7,8.48,4.7,8.48,0,0-4.57-.65-13.7,3.26-6.13.78-16.17,3.26-16.17,3.26,0,0-2.09-13.83,2.87-18.52,0,0,2.41-9.23-9.07-8.97-.13-.07-5.93-1.66-5.93-1.66l-.16-5.32.85.16.03-8.02s-4.66-1.53-8.02-7.01c-3.36-5.48-6.85-9.65-6.85-9.65,0,0-4.66-1.86-5.9-2.54s-2.8-2.74-3.03-6.33c-.13-.46-1.34-.72-1.34-.72l-4.89-6.68,2.41-2.97c3.9-.77,10.46-2.62,16.92-7.57,11.32-8.66,14.45-20.72,15.26-24.46-4.3,1.09-13.36,4.01-21.72,12.03-7.45,7.15-10.79,14.94-12.23,19.08l-4.21,2.64-16.11-11.76s-5.54-2-6.85-1.35c.13-4.3.46-13.57.46-13.57,1.14-.49,2.44-1.16,3.82-2.09.94-.63,1.75-1.28,2.45-1.89l-5.54-.2c.12-5.65.24-11.3.36-16.96,1.81-1.82,6.16-6.69,7.39-14.27,1.92-11.88-5.44-20.59-6.55-21.86-1.72,2.22-6.73,9.23-6.8,19.43-.06,8.42,3.27,14.54,4.83,17.05-.22,5.48-.43,10.96-.65,16.43l-17.28-.03,3.72-5.02v-3.78c-.8-.43-.96-.52-1.76-.95l-11.94,7.86-17.61,11.22-.39-2.22s13.57-8.35,7.3-12.78c0-.13-1.57-.13-1.57-.13,0,0-13.17,5.74-21.78,16.3-.65-.39-3-1.04-3.39.39s-.26,2.61-.26,2.61l-7.7,10.83-4.7,3.78-3-2.22c-1.2-2.54-4.98-9.65-13.43-14.35-7.92-4.39-15.41-4.15-18.26-3.91,1.91,3.24,6.3,9.69,14.48,14.48,6.68,3.91,12.96,5,16.57,5.35l4.83,3.39-6.26-.26c.96,1.19,2.19,2.97,3.13,5.35.78,1.96,1.14,3.73,1.3,5.09.43,1.13.87,2.26,1.3,3.39,0,0-5.61,5.48-2.22,9.91-1.7,1.7-9.78,9.91-10.83,18.26,0-.13-4.17,1.04-4.43,3.91l-29.22,1.57s-17.09-2.87-17.87.52c-1.83-.91-9.26-4.17-20.35-4.17s-50.15.46-50.15.46l-18.98-.78-.78.98s-5.38.88-9.49-1.17c-3.72-.1-58.7-.29-58.7-.29l-6.36,5.87s-2.25,3.13,0,5.58c.2,2.74.29,8.22.29,8.22,0,0,4.99,2.93-.1,6.55-1.47,1.96-3.62,7.34.29,13.99.2,4.11.2,4.7.2,4.7l-6.26-.1c-1.03.05-3.86.34-6.55,2.45-2.98,2.33-3.87,5.4-4.11,6.36-1.11,8.18-2.22,16.37-3.33,24.55l-1.08.2-.79-22.64c-.1-3-1.54-5.85-4.03-7.54-.02-.02-.05-.03-.08-.05-3.84-2.56-7.97-1.64-8.71-1.47,0,0-1.17,1.37-1.66,1.37h-8.41l-2.15,1.17-14.28.98-13.99,4.5-30.42,2.05-6.55,1.86-13.5,15.07-.59,61.14-17.12,5.97s-.68,2.74,1.66,3.91c1.57,1.86,2.05,5.97,2.05,5.97,0,0,2.84,3.42,5.09,3.23.49,1.86,11.64,29.15,11.64,29.15l-9.29-.29-7.34,3.82-21.62,14.09s-7.53,4.3-12.03,5.58c-.78,1.57-2.15,2.64.98,5.97,3.13,3.33,10.66,10.5,10.66,10.5h12.72l-5.84,86.09Z"/>
  <polygon class="cls-1" points="1333.52 725.52 1363.26 566 1405.78 567.04 1411.13 725.52 1333.52 725.52"/>
  <polygon class="cls-1" points="1419.09 725.52 1467.61 725.52 1441.52 567.7 1417.91 567.7 1419.09 725.52"/>
</svg>