<?xml version="1.0" encoding="UTF-8"?>
<svg id="logo_ipesa" xmlns="http://www.w3.org/2000/svg" xmlns:xlink="http://www.w3.org/1999/xlink" viewBox="0 0 245.06 248.33">
  <defs>
    <style>
      .cls-1 {
        fill: url(#Degradado_sin_nombre_17);
      }

      .cls-1, .cls-2, .cls-3, .cls-4, .cls-5, .cls-6, .cls-7, .cls-8, .cls-9, .cls-10, .cls-11, .cls-12 {
        stroke-width: 0px;
      }

      .cls-2 {
        fill: #df091c;
      }

      .cls-3 {
        fill: url(#Degradado_sin_nombre_3);
      }

      .cls-4 {
        fill: #1db5ba;
      }

      .cls-5 {
        fill: #1fb7dc;
      }

      .cls-6 {
        fill: #030304;
      }

      .cls-7 {
        fill: #6cbfa2;
      }

      .cls-8 {
        fill: #fff;
      }

      .cls-9 {
        fill: url(#Degradado_sin_nombre_9);
      }

      .cls-10 {
        fill: #b8137f;
      }

      .cls-11 {
        fill: #e3127f;
      }

      .cls-12 {
        fill: url(#Degradado_sin_nombre_6);
      }
    </style>
    <linearGradient id="Degradado_sin_nombre_3" data-name="Degradado sin nombre 3" x1="61.14" y1="193.69" x2="175.24" y2="193.69" gradientUnits="userSpaceOnUse">
      <stop offset="0" stop-color="#b8137f"/>
      <stop offset="1" stop-color="#ce2586"/>
    </linearGradient>
    <linearGradient id="Degradado_sin_nombre_6" data-name="Degradado sin nombre 6" x1="16.68" y1="94.16" x2="104.6" y2="266.96" gradientUnits="userSpaceOnUse">
      <stop offset=".26" stop-color="#df091c"/>
      <stop offset="1" stop-color="#84207f"/>
    </linearGradient>
    <linearGradient id="Degradado_sin_nombre_9" data-name="Degradado sin nombre 9" x1="0" y1="76.25" x2="169.45" y2="76.25" gradientUnits="userSpaceOnUse">
      <stop offset=".26" stop-color="#eae13c"/>
      <stop offset=".66" stop-color="#1fb7dc"/>
    </linearGradient>
    <linearGradient id="Degradado_sin_nombre_17" data-name="Degradado sin nombre 17" x1="5.79" y1="43.45" x2="226.11" y2="43.45" gradientUnits="userSpaceOnUse">
      <stop offset=".26" stop-color="#eae13c"/>
      <stop offset=".78" stop-color="#6cbfa2"/>
      <stop offset="1" stop-color="#6cbfa2"/>
    </linearGradient>
  </defs>
  <path id="rosa" class="cls-11" d="M108.39,201.66c.75,1.03,10.56,14.04,25.06,12.74,5.26-.47,9.29-2.65,11.76-4.34.36,2.9,1.68,10.08,7.56,15.68,7.73,7.37,20.18,8.99,31.51,4.06-4.35,1.88-21.02,8.49-40.88,2.23-23.37-7.37-33.33-26.94-35.01-30.38Z"/>
  <path id="morado" class="cls-3" d="M171.13,238.54c-5.24.22-10.07.01-14.4-.43h.02c-16.61-1-30.36-9.27-41.87-23.33-9.12-11.14-15.32-23.88-20.4-37.18-3.75-9.82-6.76-19.93-10.52-29.76-2.07-5.42-6.06-9.19-12.45-8.02-6.74,1.23-9.79,6.04-10.33,12.54-.16,1.91.17,3.92.6,5.81,8.41,37.56,24.61,69.65,61.44,87.22,1.41.48,2.82.96,4.23,1.44,16.98,3.17,32.29-2.07,47.79-8.55-1.34.11-2.7.21-4.11.27Z"/>
  <path id="punto_morado" class="cls-10" d="M78.47,121.72c-.05,7.1-3.74,12.09-9,12.16-5.37.08-10.27-6.08-10.36-13.05-.09-6.9,4.34-12.56,9.72-12.43,5.76.15,9.7,5.58,9.65,13.31Z"/>
  <path id="rojo" class="cls-12" d="M126.36,247.45c-9.52,1.79-18.1.54-26.65-.95-35.82-6.22-66.66-21.24-84.68-54.38C-.13,164.24-6.89,134.83,9.52,104.54c9.88-18.24,24.97-30.89,44.21-38.94-3.35,2.86-6.87,5.55-10.02,8.62-8.18,7.98-15.57,16.47-15.14,28.97.08,2.38-.45,5.41,2.35,6.42,2.94,1.06,4.25-1.73,5.59-3.69,2.38-3.47,4.67-7.74,9.67-5.93,4.69,1.7,4.53,6.52,4.64,10.7.75,29.38,5.24,58.01,17.68,84.91,8.29,17.91,19.86,33.13,37.28,43.27,4.9,2.85,9.61,5.55,15.16,6.91,1.41.48,4,1.2,5.41,1.68Z"/>
  <circle id="punto_rojo" class="cls-2" cx="49.72" cy="89.92" r="6.58"/>
  <path id="amarillo_azul" class="cls-9" d="M160.31,41.83c-23.48-13.92-48.79-15.02-74.72-9.95-21.7,4.24-40.99,13.37-57.86,27.25-3.04,3.1-6.17,6.54-9.3,10.35-1.34,1.63-2.62,3.24-3.84,4.85-6.44,8.47-10.89,18.31-12.77,28.78,0,.05-.02.11-.03.16-1.07,6.01-2.79,12.2-1.03,20.13,1.12-4.08,1.78-6.64,2.53-9.17,3.73-12.6,9.14-24.24,18.31-33.95,25.74-27.26,58.03-33.76,93.61-29.49,13.83,1.66,26.11,8.13,38.66,13.69,5.09,2.25,10.58,2.22,13.77-3.02,3.05-5.01,2.11-10.49-1.66-15.05-1.52-1.84-3.59-3.35-5.67-4.59Z"/>
  <path id="azul_punto" class="cls-5" d="M193.53,75.21c-.24,4.3-3.21,6.57-8.15,6.59-7.53.04-15.56-6.82-15.22-13.1.29-5.41,4.11-6.96,8.68-6.99,7.26-.06,14.84,6.6,14.69,13.51Z"/>
  <path id="amarillo_verde" class="cls-1" d="M222.62,48.57C198.42,17.82,166.52,1.1,127.64.05,70.76-1.49,22.43,33.44,5.79,86.91c3.56-6.31,7.92-13.09,13.27-20.02,1.83-2.37,3.66-4.6,5.48-6.72.99-1.19,2-2.36,3.06-3.48.05-.06.11-.12.16-.18h0c2.74-2.9,5.69-5.56,8.87-7.99,39.81-30.41,98.55-31.8,139.92-3.27,3.72,2.56,7.39,4.51,11.41,1.64,4.3-3.07,7.69-1.7,11.3.97,5.52,4.07,10.98,8.26,16.74,11.97,5.06,3.25,9.71,1.49,10.1-3.37.26-3.21-1.66-5.59-3.47-7.89Z"/>
  <path id="punto_verde" class="cls-7" d="M204.59,60.16c-.14,2.49-1.86,3.8-4.71,3.81-4.35.02-9-3.95-8.8-7.58.17-3.13,2.38-4.02,5.02-4.05,4.2-.03,8.58,3.82,8.5,7.81Z"/>
  <path id="punto_verde-2" data-name="punto_verde" class="cls-4" d="M245.06,85.42c-.38,4.5-3.09,6.69-8.38,5.05-5.96-1.85-13.74-14.04-12.78-20.22.69-4.43,3.23-6.44,7.83-4.85,6.05,2.09,13.41,12.65,13.33,20.03Z"/>
  <circle id="negro" class="cls-6" cx="124.87" cy="125.44" r="37.71"/>
  <circle id="circulo_grande" class="cls-8" cx="138.4" cy="100.33" r="9.8"/>
  <circle id="circulo_pequeño" class="cls-8" cx="152.5" cy="115.86" r="5.29"/>
</svg>