<?xml version="1.0" encoding="utf-8"?>
<!-- Generator: Adobe Illustrator 28.1.0, SVG Export Plug-In . SVG Version: 6.00 Build 0)  -->
<svg version="1.1" id="Capa_1" xmlns="http://www.w3.org/2000/svg" xmlns:xlink="http://www.w3.org/1999/xlink" x="0px" y="0px"
	 viewBox="0 0 759.4 1080" style="enable-background:new 0 0 759.4 1080;" xml:space="preserve">
<style type="text/css">
	.st0{fill:#E84C3C;}
	.st1{fill:#C1372A;}
	.st2{display:none;}
	.st3{display:inline;}
	.st4{display:inline;fill:#FFFFFF;}
	.st5{display:inline;fill:#22BADE;}
	.st6{display:inline;fill:#E6007E;}
	.st7{display:inline;fill:url(#SVGID_1_);}
	.st8{display:inline;fill:url(#SVGID_00000149356100296893398530000011758817546190236084_);}
	.st9{display:inline;fill:#E20613;}
	.st10{display:inline;fill:#B70D7F;}
	.st11{display:inline;fill:url(#SVGID_00000143584582018487791510000000351263061165181613_);}
	.st12{display:inline;fill:url(#SVGID_00000164488804827541149040000005338723532212608941_);}
	.st13{display:inline;fill:#25B7BC;}
	.st14{display:inline;fill:#89CBC0;}
	.st15{display:inline;fill:url(#SVGID_00000064323970024590138680000014591819114806426496_);}
	.st16{display:inline;fill:url(#SVGID_00000033340256064381946750000009706979333945539996_);}
	.st17{display:inline;fill:url(#SVGID_00000140012477325076686120000015742286512765502880_);}
	.st18{display:inline;fill:url(#SVGID_00000124156544330870588800000009406696308042739363_);}
</style>
<g>
	<path class="st0" d="M724,368.1C724,178.6,570.4,25,380.9,25S37.8,178.6,37.8,368.1c0,57.7,14.3,112.1,39.4,159.8h0l0.3,0.5
		c3.9,7.5,8.2,14.8,12.7,21.9l290.3,502.3l291.1-502.1c4.4-7,8.6-14.2,12.5-21.5l0.3-0.5h0C709.6,480.7,724,426.1,724,368.1z
		 M380.5,496.3c-70.8,0-128.2-57.4-128.2-128.2s57.4-128.2,128.2-128.2s128.2,57.4,128.2,128.2S451.3,496.3,380.5,496.3z"/>
	<path class="st1" d="M380.9,151.4c-119.7,0-216.7,97-216.7,216.7s97,216.7,216.7,216.7s216.7-97,216.7-216.7
		S500.6,151.4,380.9,151.4z M380.3,498.1c-71.8,0-130-58.2-130-130s58.2-130,130-130s130,58.2,130,130
		C510.3,439.9,452.1,498.1,380.3,498.1z"/>
</g>
<g class="st2">
	<circle class="st3" cx="1667.1" cy="540.9" r="25.4"/>
	<circle class="st4" cx="1685.8" cy="534.3" r="3.7"/>
	<circle class="st4" cx="1676.6" cy="523.3" r="6"/>
	
		<ellipse transform="matrix(0.7071 -0.7071 0.7071 0.7071 142.9544 1354.4431)" class="st5" cx="1706.4" cy="504.7" rx="5.8" ry="8.3"/>
	<path class="st6" d="M1656.6,592.2c0.9,2.2,6.7,15,21.5,20.5c14.6,5.4,27.1-0.3,29.3-1.4c-7.2,3.9-15.5,3.2-20.8-1.5
		c-4.8-4.2-5.4-10.1-5.5-11.6c-1.6,1-5.3,2.8-10.2,2.5C1662.2,600.2,1657.2,593.2,1656.6,592.2z"/>
	
		<linearGradient id="SVGID_1_" gradientUnits="userSpaceOnUse" x1="1623.22" y1="493.1227" x2="1706.45" y2="493.1227" gradientTransform="matrix(1 0 0 -1 0 1080)">
		<stop  offset="0" style="stop-color:#B70D7F"/>
		<stop  offset="1" style="stop-color:#E6007E"/>
	</linearGradient>
	<path class="st7" d="M1706.4,615c-7.1,4.4-19,9.9-32.8,8.1c-24.9-3.2-46.8-29.3-50.5-64.8c0.2-4,3.3-7.3,7.1-8
		c4.1-0.7,8.2,1.9,9.5,5.9c5.1,33.1,23.6,57.5,45.7,61.1C1690.2,618.2,1697.4,618.4,1706.4,615z"/>
	
		<linearGradient id="SVGID_00000069372531528475284630000005302750564649952384_" gradientUnits="userSpaceOnUse" x1="1596.3657" y1="568.5494" x2="1637.6709" y2="455.2441" gradientTransform="matrix(1 0 0 -1 0 1080)">
		<stop  offset="0" style="stop-color:#E20613"/>
		<stop  offset="1" style="stop-color:#821F82"/>
	</linearGradient>
	<path style="display:inline;fill:url(#SVGID_00000069372531528475284630000005302750564649952384_);" d="M1668.1,623.5
		c-7-2-12.7-4.8-17.2-7.8c-37.2-24.3-34.6-81.5-34.2-89c-0.1-1.5-1-2.7-2.3-3.2c-1.2-0.5-2.7-0.2-3.7,0.7c-0.5,0.4-0.8,1.1-1,1.7
		c-1.1,3.5-4.2,5.1-5.9,4.5c-1.7-0.6-3.1-3.7-2-7.2c0.8-3.1,2.3-7.6,5.6-12.3c4.6-6.7,10.2-10.3,13.4-12.1
		c-4.6,1.8-22.5,9.3-31.6,28.7c-6.6,14.2-5,27.2-4.2,33.2c4.5,32.5,32.1,49.8,35.6,51.9C1640.4,624.8,1660.3,624.2,1668.1,623.5z"/>
	<ellipse class="st9" cx="1616.8" cy="517.2" rx="4.3" ry="4.5"/>
	<ellipse class="st10" cx="1629.4" cy="538.5" rx="6.6" ry="8.7"/>
	
		<linearGradient id="SVGID_00000056400109481792387470000004236288772934740133_" gradientUnits="userSpaceOnUse" x1="1582.48" y1="570.4388" x2="1698.2031" y2="570.4388" gradientTransform="matrix(1 0 0 -1 0 1080)">
		<stop  offset="0" style="stop-color:#F6E913"/>
		<stop  offset="0.2263" style="stop-color:#BCD14C"/>
		<stop  offset="1" style="stop-color:#22BADE"/>
	</linearGradient>
	<path style="display:inline;fill:url(#SVGID_00000056400109481792387470000004236288772934740133_);" d="M1582.5,543.1
		c0.9-5.9,4.3-23.4,19.4-37c10.7-9.6,22-12.6,27.5-14c25.9-6.5,48.1,3.6,55.6,7.5c4.4,3,10.3,1.3,12.4-2.8c2-4,0-9.7-4.9-11.5
		c-7.2-3.6-21.9-9.8-40.9-9.1c-8.1,0.3-34.6,1.3-53.2,22.7C1583.5,516.1,1582.5,536.3,1582.5,543.1z"/>
	
		<linearGradient id="SVGID_00000122713822742025468840000007011916647909318832_" gradientUnits="userSpaceOnUse" x1="1582.48" y1="588.6389" x2="1736.5067" y2="588.6389" gradientTransform="matrix(1 0 0 -1 0 1080)">
		<stop  offset="0" style="stop-color:#F6E913"/>
		<stop  offset="0.3827" style="stop-color:#BCD14C"/>
		<stop  offset="1" style="stop-color:#25B7BC"/>
	</linearGradient>
	<path style="display:inline;fill:url(#SVGID_00000122713822742025468840000007011916647909318832_);" d="M1582.5,526.5
		c6.8-34.9,33.9-62.2,68-68.8c31.4-6.1,64,6.4,84.1,32c2.4,2.1,2.4,5.5,0.7,7.1c-1.2,1.2-3.4,1.4-5.2,0.5l-14.5-10.1
		c-1.1-0.8-2.6-0.3-3.2,0.8c0,0,0,0,0,0c0,0,0,0,0,0c-0.9,1.5-3,1.8-4.4,0.8c-8-5.6-29.4-18.9-57.8-16.5
		c-6.6,0.5-23.2,2.2-39.8,14.3C1591.1,500.8,1584.5,519.8,1582.5,526.5z"/>
	<ellipse transform="matrix(0.866 -0.5 0.5 0.866 -21.1175 938.9855)" class="st13" cx="1741.6" cy="508.9" rx="5" ry="9.7"/>
	
		<ellipse transform="matrix(0.7476 -0.6641 0.6641 0.7476 103.8461 1265.1901)" class="st14" cx="1716.6" cy="496" rx="3.5" ry="4.5"/>
</g>
<g class="st2">
	<path class="st3" d="M1593.5,387.7c1.9,3,3,6.6,3,10.4c0,10.8-8.7,19.5-19.5,19.5s-19.5-8.7-19.5-19.5c0-10.6,8.5-19.3,19.1-19.5
		c-9.4-3.7-19.8-5.8-30.5-5.8c-45.9,0-83.1,37.2-83.1,83.1s37.2,83.1,83.1,83.1s83.1-37.2,83.1-83.1
		C1629.2,427.6,1615.1,402.7,1593.5,387.7z M1607.1,446.2c-6.7,0-12.1-5.4-12.1-12.1s5.4-12.1,12.1-12.1c6.7,0,12.1,5.4,12.1,12.1
		C1619.2,440.8,1613.8,446.2,1607.1,446.2z"/>
	
		<ellipse transform="matrix(0.998 -6.369803e-02 6.369803e-02 0.998 -24.9809 107.3734)" class="st5" cx="1671.5" cy="445.5" rx="19.1" ry="27.1"/>
	
		<linearGradient id="SVGID_00000078766529884764184850000004948835798711835016_" gradientUnits="userSpaceOnUse" x1="1390.0508" y1="453.5717" x2="1608.1899" y2="453.5717" gradientTransform="matrix(1 0 0 -1 0 1080)">
		<stop  offset="0" style="stop-color:#B70D7F"/>
		<stop  offset="1" style="stop-color:#E6007E"/>
	</linearGradient>
	<path style="display:inline;fill:url(#SVGID_00000078766529884764184850000004948835798711835016_);" d="M1608.2,903.8
		c-68.1-53.5-109.3-108.3-132.6-144.3c-78.1-120.7-104.1-260.2-72.2-327.7c13.9-29.3,36.1-48.8,36.1-48.8
		c9.1-7.9,33.6-28.9,71.2-33.2c49.1-5.6,84.3,20.6,91.7,26.3c-10.4-5.8-36.5-18.2-68.8-13.2c0,0-35.3,5.5-63.4,35.6
		c-70.1,75.1,4.5,262.6,22.9,308.8C1512.8,757,1547.2,827.8,1608.2,903.8z"/>
	
		<linearGradient id="SVGID_00000091002854688984914170000007620975454946992274_" gradientUnits="userSpaceOnUse" x1="1262.7539" y1="728.4578" x2="1682.5616" y2="728.4578" gradientTransform="matrix(1 0 0 -1 0 1080)">
		<stop  offset="0" style="stop-color:#F6E913"/>
		<stop  offset="0.5" style="stop-color:#BCD14C"/>
		<stop  offset="1" style="stop-color:#22BADE"/>
	</linearGradient>
	<path style="display:inline;fill:url(#SVGID_00000091002854688984914170000007620975454946992274_);" d="M1265.6,467.5
		c2.2-20.4,9.7-63.3,41.6-104.7c9.8-12.7,46.3-58.7,110.5-72.8c38.9-8.5,71.4-1.8,88.7,2.1c16.4,3.6,37.9,8.6,61.8,23.8
		c40.4,25.7,57.6,61.7,61.8,70.5c4.3,17,22.4,25.6,36.4,19.9c13.7-5.5,20.8-23.8,12.7-38.9c-7.1-21.4-18.3-56-71.4-93.1
		c-64.4-44.9-159.4-55.6-237.2-6.4C1297.8,314.1,1250.5,382.5,1265.6,467.5z"/>
	
		<ellipse transform="matrix(0.1466 -0.9892 0.9892 0.1466 988.3456 2173.0952)" class="st13" cx="1753.6" cy="513.7" rx="31.8" ry="16.4"/>
	
		<ellipse transform="matrix(1 -4.708594e-03 4.708594e-03 1 -2.0808 8.0817)" class="st14" cx="1715.3" cy="445.9" rx="11.5" ry="14.9"/>
	<path class="st6" d="M1454.3,492.6c15.8,27.2,40.8,59.7,75.2,63.3c48.8,5.2,98.7-42.2,98.7-42.2s-48.1,78.1-56,160.5
		c-9.7,101.1,21.6,186.8,37.6,216.5c-32.1-43.8-70.2-104.7-101.3-182.7C1474.9,624.3,1460.6,548.9,1454.3,492.6z"/>
	<path class="st3" d="M1186.9,229.6"/>
	
		<linearGradient id="SVGID_00000009561839560839357100000002121085077369941126_" gradientUnits="userSpaceOnUse" x1="1264.4163" y1="758.8503" x2="1774.91" y2="758.8503" gradientTransform="matrix(1 0 0 -1 0 1080)">
		<stop  offset="0" style="stop-color:#F6E913"/>
		<stop  offset="0.5" style="stop-color:#BCD14C"/>
		<stop  offset="1" style="stop-color:#25B7BC"/>
	</linearGradient>
	<path style="display:inline;fill:url(#SVGID_00000009561839560839357100000002121085077369941126_);" d="M1774.6,450.4
		c-2.3-21.9-11.3-158-141-235.4c-30.8-18.4-109.4-61.8-198.8-33.3c-84.4,26.9-156.2,90.8-170.3,191.7c-0.1,0.3,0.4,0.4,0.5,0.1
		c6.3-21.4,44.3-85.7,130.6-125.5c72.8-33.6,152.5-21.8,206.5,11.2c3.6,2.2,7.2,4.6,11,7.3c0.3,0.2,38.5,30.1,59,62.8
		c3.2,5.9,6.6,12.8,10.1,20.9c2.6,6.3,5.7,13,9,19.4l0,0c1.8,4.2,4.3,9,7.6,14.1c1.7,2.6,3.3,4.9,5,7.1c1,1.5,2.2,3,3.7,4.5
		c0,0,0,0,0,0l0,0c3.9,4,9.2,7.2,15.4,5.1c3.6-0.6,7.2,1.8,8.2,5.3c0,0,16.5,54.9,16.5,54.9c0,0,0,0,0,0c2.9,6.1,8.9,9.9,14.4,9.3
		C1769.7,469.3,1776.5,460.6,1774.6,450.4z"/>
	
		<linearGradient id="SVGID_00000042731114064331060280000002513136054718704292_" gradientUnits="userSpaceOnUse" x1="1401.191" y1="750.2633" x2="1539.373" y2="297.8989" gradientTransform="matrix(1 0 0 -1 0 1080)">
		<stop  offset="0" style="stop-color:#E20613"/>
		<stop  offset="1" style="stop-color:#821F82"/>
	</linearGradient>
	<path style="display:inline;fill:url(#SVGID_00000042731114064331060280000002513136054718704292_);" d="M1415.1,665.8
		c0,0-37.6-83.9-35.9-162.5c0.7-32.3,8-54.7,10.5-61.9c4.6-13.2,12.2-34.4,30.2-54.6c36.1-40.5,85.5-45.5,89.7-45.8
		c51.8-4.5,87.8,23.1,95.5,29.2c-3.6-7.4-9.7-18.2-20-29c-11.9-12.4-26.9-20.6-32.9-23.7c-0.5-0.2-1.1-0.6-2-1
		c-14.8-7.3-65.5-29.5-124.2-16.2c-48,10.9-77.8,40.2-87.8,50.3c-62.6,63.3-62.3,152.9-60.1,178.3
		c10.1,120.3,88.3,229.5,182.7,301.6c52.7,40.2,104.2,63.4,143.2,77.1C1563.4,878.6,1468.6,802.3,1415.1,665.8z"/>
</g>
</svg>
