<?xml version="1.0" encoding="UTF-8"?>
<svg id="Capa_1" data-name="Capa 1" xmlns="http://www.w3.org/2000/svg" viewBox="0 0 1920 1080">
  <defs>
    <style>
      .cls-1 {
        fill: #302d80;
      }

      .cls-1, .cls-2, .cls-3 {
        stroke-width: 0px;
      }

      .cls-2 {
        fill: #ffeb00;
      }

      .cls-3 {
        fill: #fff;
      }
    </style>
  </defs>
  <path class="cls-1" d="M1129.96,949.36l684.68-158.67c83.2-19.31,78.93-64.58,78.93-103.12v-317.34c0-38.59,4.27-83.84-78.93-103.11l-684.68-158.69c-83.18-19.24-213.48-19.24-296.62,0L148.63,267.12c-83.14,19.27-76.5,64.52-76.5,103.11v317.34c0,38.54-6.64,83.81,76.5,103.12l684.71,158.67c83.14,19.22,213.44,19.22,296.62,0"/>
  <path class="cls-2" d="M1117.62,897.09l627.8-138.93c76.19-16.89,91.13-56.57,91.13-90.29v-277.97c0-33.73-14.94-73.38-91.13-90.32l-627.8-138.92c-76.19-16.87-195.66-16.87-271.9,0L217.96,299.58c-76.27,16.93-92.69,56.59-92.69,90.32v277.97c0,33.72,16.42,73.4,92.69,90.29l627.76,138.93c76.24,16.9,195.71,16.9,271.9,0M857.61,864.86l-572.79-126.77c-69.52-15.44-124.01-51.56-124.01-82.44v-253.55c0-30.8,54.48-66.99,124.01-82.38l572.79-126.8c69.61-15.36,178.57-15.36,248.13,0l572.74,126.8c69.62,15.39,124.11,51.57,124.11,82.38v253.55c0,30.87-54.49,67-124.11,82.44l-572.74,126.77c-69.56,15.36-178.53,15.36-248.13,0"/>
  <path class="cls-3" d="M324.97,603.92c-35.12,0-61.84-9.81-80.22-29.33-18.39-19.53-27.57-47.22-27.57-83.16,0-17.89,2.79-33.81,8.39-47.81,5.61-14.07,13.32-25.88,23.1-35.51,9.73-9.69,21.37-17.02,34.85-22.04,13.55-4.98,28.17-7.47,43.97-7.47,9.11,0,17.4.69,24.9,2.02,7.49,1.36,14.01,2.93,19.64,4.72,5.6,1.73,10.26,3.56,14.01,5.43,3.75,1.86,6.45,3.35,8.13,4.34l-14.05,39.33c-6.67-3.6-14.4-6.62-23.2-9.08-8.85-2.49-18.86-3.77-30.06-3.77-7.52,0-14.81,1.28-21.96,3.77-7.18,2.46-13.49,6.5-19.04,12-5.49,5.49-9.89,12.63-13.23,21.34-3.32,8.7-5,19.31-5,31.75,0,9.97,1.13,19.33,3.31,27.92,2.15,8.6,5.7,16.01,10.57,22.23,4.88,6.23,11.3,11.18,19.17,14.85,7.9,3.6,17.4,5.46,28.64,5.46,7.07,0,13.41-.43,19.02-1.25,5.59-.87,10.57-1.84,14.94-2.97,4.37-1.18,8.18-2.46,11.54-3.93,3.3-1.44,6.33-2.78,9.03-4.04l13.39,38.93c-6.85,4.19-16.5,7.94-28.97,11.24-12.46,3.29-26.93,5.01-43.3,5.01"/>
  <polygon class="cls-3" points="443.96 599.49 443.96 383.57 589.8 383.57 589.8 424.45 492.57 424.45 492.57 466.81 578.9 466.81 578.9 506.66 492.57 506.66 492.57 558.74 596.98 558.74 596.98 599.49 443.96 599.49"/>
  <path class="cls-3" d="M793.25,599.49c-13.94-24.64-29-49.07-45.18-73.17-16.2-24.05-33.42-46.82-51.7-68.25v141.42h-48.01v-215.92h39.6c6.82,6.92,14.42,15.31,22.7,25.24,8.34,9.97,16.79,20.66,25.41,31.97,8.61,11.3,17.2,23.08,25.72,35.17,8.47,12.2,16.5,23.86,23.97,35.11v-127.48h48.31v215.92h-40.82Z"/>
  <polygon class="cls-3" points="1059.66 383.57 1059.66 425.01 994.51 425.01 994.51 599.49 945.93 599.49 945.93 425.01 880.77 425.01 880.77 383.57 1059.66 383.57"/>
  <path class="cls-3" d="M1190.83,603.92c-15.16,0-28.23-2.16-39.29-6.41-11-4.29-20.09-10.18-27.23-17.76-7.17-7.6-12.51-16.64-15.91-27.14-3.46-10.43-5.15-22.08-5.15-34.74v-134.31h48.66v130.29c0,8.71.94,16.13,2.9,22.3,1.99,6.1,4.69,11.08,8.15,14.95,3.4,3.84,7.56,6.56,12.42,8.21,4.86,1.7,10.25,2.49,16.08,2.49,11.82,0,21.37-3.61,28.81-10.89,7.36-7.22,11.04-19.63,11.04-37.05v-130.29h48.62v134.31c0,12.66-1.81,24.36-5.31,34.9-3.5,10.6-8.91,19.7-16.19,27.31-7.31,7.56-16.51,13.41-27.71,17.58-11.24,4.18-24.54,6.25-39.89,6.25"/>
  <path class="cls-3" d="M1405.46,381.08c32.42,0,57.23,5.77,74.5,17.35,17.18,11.51,25.88,29.43,25.88,53.69,0,15.2-3.53,27.54-10.49,36.9-6.99,9.52-16.99,16.98-30.05,22.35,4.33,5.36,8.92,11.55,13.66,18.52,4.82,6.97,9.52,14.26,14.24,21.84,4.63,7.56,9.12,15.47,13.5,23.65,4.36,8.25,8.45,16.26,12.19,24.12h-54.39c-3.92-6.99-7.97-14.24-11.98-21.43-4.1-7.3-8.25-14.34-12.55-21.26-4.3-6.82-8.51-13.28-12.67-19.42-4.21-6.15-8.34-11.72-12.48-16.7h-24v78.81h-48.67v-212.74c10.6-2.08,21.61-3.58,32.9-4.43,11.35-.77,21.48-1.24,30.37-1.24M1408.28,422.53c-3.53,0-6.63.11-9.51.35-2.78.23-5.42.39-7.91.6v58.6h13.66c18.32,0,31.39-2.32,39.27-6.9,7.92-4.53,11.88-12.34,11.88-23.33s-4.03-18.11-11.99-22.58c-8.06-4.46-19.82-6.74-35.4-6.74"/>
  <path class="cls-3" d="M1634.44,472.17c8.73-14.71,17.01-29.44,24.9-44.09,7.89-14.76,15.22-29.53,21.85-44.51h53.63c-11.83,23.32-24.13,45.86-36.84,67.67-12.64,21.79-25.97,43.74-40.13,65.73v82.53h-48.59v-81.91c-14.19-22.04-27.57-44.04-40.36-66.1-12.81-21.99-25.06-44.59-36.95-67.91h56.41c6.61,14.98,13.78,29.75,21.48,44.51,7.68,14.64,15.88,29.38,24.59,44.09"/>
  <path class="cls-3" d="M1710.6,606.52c-11.57,0-19.54-8.46-19.54-19.97s8.04-19.99,19.65-19.99,19.89,8.52,19.89,19.99-8.67,19.97-20,19.97M1710.6,570.95c-8.46,0-14.56,6.83-14.56,15.6s6.1,15.58,14.56,15.58,14.73-6.81,14.73-15.58-6.14-15.6-14.73-15.6M1714.42,597.46c-3.14-5.53-4.89-8.86-5.76-8.86h-.66v8.86h-4.63v-22.32h7.07c4.91,0,7.53,2.64,7.53,6.13s-2.98,5.37-5.01,6.06h.1c1.06.09,3.99,5.05,6.78,10.13h-5.42ZM1709.04,578.87h-1.03v5.99h.87c2.23,0,4.19-.94,4.19-3.19s-1.38-2.8-4.03-2.8"/>
  <path class="cls-3" d="M725.57,755.49v-70.04c0-4.03,0-7.03.33-11.72h-.33c-1.52,4.03-4.5,8.35-6.16,11.16l-25.06,39.24h-9.16l-27-39.72c-1.85-2.8-4.19-5.98-6.39-10.68h-.3c.48,4.81.48,7.7.48,11.35v70.41h-17.31v-109.96h16.64l31.91,46.75c2.98,4.52,5,7.62,6.66,10.99h.14c1.51-3.18,3.34-6.47,6.37-11.37l29.67-46.38h16.86v109.96h-17.34Z"/>
  <path class="cls-3" d="M836.44,755.49l-10.98-28.03h-40.73l-10.32,28.03h-17.36l42.55-110.23h12.16l43.54,110.23h-18.87ZM809.6,683.43c-1.81-5.47-3.31-10-3.99-13.57h-.17c-1.03,3.87-2.32,8.2-4.32,13.37l-10.81,29.54h29.5l-10.2-29.34Z"/>
  <path class="cls-3" d="M898.68,755.49h-29.54v-109.96h30.19c40.55,0,60.59,22.4,60.59,53.89s-21.53,56.07-61.24,56.07M899.49,660.74h-12.85v79.74h12.85c30.53,0,41.86-19.22,41.86-40.67s-13.49-39.06-41.86-39.06"/>
  <polygon class="cls-3" points="978.58 755.49 978.58 645.53 1037.29 645.53 1031.97 660.55 996.08 660.55 996.08 691.79 1031.78 691.79 1031.78 706.81 996.08 706.81 996.08 740.47 1037.44 740.47 1037.44 755.49 978.58 755.49"/>
  <path class="cls-3" d="M1114.95,755.49c-17.09-28.39-25.69-43.38-30.01-44.55h-10.19v44.55h-17.51v-109.96h27.41c27.49,0,38.02,13.85,38.02,30.7,0,15.01-9.86,24.72-20.7,29.04v.19c4.51,2.33,16.15,21.84,33.4,50.03h-20.43ZM1084.8,660.74h-10.04v36.56h10.4c11.35,0,19.69-8.74,19.69-19.24,0-9.52-5.87-17.32-20.04-17.32"/>
  <path class="cls-3" d="M1218.28,755.49l-11.08-28.03h-40.7l-10.31,28.03h-17.39l42.6-110.23h12.14l43.58,110.23h-18.84ZM1191.4,683.43c-1.82-5.47-3.34-10-4.01-13.57h-.2c-.96,3.87-2.29,8.2-4.3,13.37l-10.88,29.54h29.52l-10.13-29.34Z"/>
  <path class="cls-3" d="M1277.44,757.13c-15.14,0-25.54-5.01-32.56-9.51l7.4-13.14c5.49,3.81,14.16,8.12,24.52,8.12,8.95,0,19.48-3.93,19.48-13.94,0-16.85-26.49-20.23-39.84-35.08-4.54-5.01-7.5-11.17-7.5-19.66,0-16.01,12.32-29.36,34.52-29.36,11.66,0,20.34,3.01,26.01,5.98l-.14,16.36c-7.51-4.5-16.06-7.71-24.99-7.71-9.54,0-17.42,4.03-17.42,12.69,0,21.69,48.09,21.06,48.09,54.74,0,18.49-16.36,30.5-37.57,30.5"/>
</svg>