<?xml version="1.0" encoding="UTF-8"?>
<svg id="Capa_1" data-name="Capa 1" xmlns="http://www.w3.org/2000/svg" viewBox="0 0 1920 1080">
  <defs>
    <style>
      .cls-1 {
        fill: #1b2d70;
      }

      .cls-1, .cls-2 {
        stroke-width: 0px;
      }

      .cls-2 {
        fill: #fff;
      }
    </style>
  </defs>
  <rect class="cls-1" x="20" y="166.16" width="1863" height="759.03"/>
  <rect class="cls-1" x="20" y="166.16" width="1863" height="759.03"/>
  <g>
    <path class="cls-2" d="M239.81,420.02c20.22,15.29,45.63,22.94,76.21,22.94,21.82,0,40.57-3.22,56.27-9.68,15.68-6.45,29.74-16.92,42.16-31.41l-24.61-13.62c-17.52,18.96-41.56,28.43-72.15,28.43-25.32,0-45.43-6.01-60.32-18.04-14.89-12.02-22.34-27.83-22.34-47.42s7.53-34.56,22.57-46.83c15.05-12.26,34.53-18.4,58.41-18.4,31.54,0,56.07,9.32,73.58,27.96l26.04-9.32c-23.09-29.94-56.31-44.92-99.62-44.92-30.1,0-55.35,7.73-75.73,23.17-23.42,17.69-35.12,40.46-35.12,68.33s11.55,51.28,34.64,68.8"/>
    <path class="cls-2" d="M489.47,420.02c20.38,15.45,45.87,23.18,76.45,23.18s55.58-7.64,75.98-22.93c23.24-17.52,34.87-40.45,34.87-68.81s-11.7-50.48-35.11-68.33c-20.39-15.61-45.63-23.41-75.74-23.41s-55.27,7.8-75.97,23.41c-23.57,17.84-35.36,40.61-35.36,68.33s11.62,51.05,34.89,68.56M507.14,304.51c15.13-12.34,34.72-18.51,58.77-18.51,21.98,0,40.37,5.42,55.19,16.25,17.2,12.58,25.8,29,25.8,49.21s-7.37,35.2-22.1,47.31c-14.74,12.1-34.37,18.15-58.89,18.15s-44.44-6.01-59.25-18.03c-14.81-12.02-22.22-27.84-22.22-47.43s7.57-34.6,22.7-46.95"/>
    <polygon class="cls-2" points="887.72 412.38 754.18 412.38 754.18 265.21 725.5 265.21 725.5 438.18 887.72 438.18 887.72 412.38"/>
    <path class="cls-2" d="M1372.54,428.08l-8.38-12.39h333.67v-11.12h-341.59l-8.11-12.18h349.71v-10.93h-357.17l-7.61-10.66c4.54-.74,6-.9,8.63-1.65h356.16v-10.92h-337.2c.63,0,4.45-2.97,4.67-3.19,3.19-3.37,4.91-4.92,6.9-9.12h325.63v-10.92h-321.99c1.13-3.14,2.27-8.79,2.52-12.31h319.46v-10.92h-319.83c-.62-4.25-1.85-8.6-3.27-12.31h323.11v-10.96h-327.42c-1.55-2.04-5.06-6.82-6.96-8.62-1.33-1.26-3.76-2.88-5.22-3.98h339.6v-10.68h-514.57v172.97h28.67v-65.94h87.31l46.81,66.53h351.78v-10.69h-325.29ZM1211.92,346.44v-55.43h100.82c23.89,0,35.83,9.56,35.83,28.68,0,17.84-11.07,26.75-33.2,26.75h-103.45Z"/>
    <path class="cls-2" d="M806.92,534.55c15.05-12.26,34.53-18.39,58.42-18.39,31.53,0,56.06,9.32,73.58,27.96l26.04-9.32c-23.09-29.94-56.3-44.92-99.62-44.92-13.14,0-25.31,1.56-36.6,4.51l-623.56.76v10.83l597.11-.76c-3.62,2.14-8.94,5.45-12.3,8-1.59,1.21-3.94,3.1-5.43,4.35l-579.38.76v10.9l568.65-.76c-3.87,4.63-5.34,7.25-8.45,12.35l-560.2.76v10.9l555.06-.76c-1.33,3.35-2.78,8-3.73,12.34l-551.33.76v10.86l549.76-.76c-.05,1.32-.34,5.28-.34,6.62,0,2.74.02,3.24.23,5.87l-549.65.68v10.82l550.92-.76c.8,3.67,2.16,8.9,3.44,12.35l-554.36.76v10.91l559.22-.76c2.4,4.16,4.88,8.58,7.97,12.35l-567.19.76v10.87l577.06-.76c1.09.9,5.68,5.05,6.84,5.92,3.17,2.4,5.87,4.41,9.28,6.42l-593.17.76v10.85l617.84-.76c12.79,3.9,26.9,5.3,42.33,5.3,21.81,0,40.57-3.23,56.26-9.67,15.68-6.45,29.74-16.92,42.17-31.42l-24.61-13.62c-17.52,18.95-41.57,28.43-72.15,28.43-25.32,0-45.44-6.01-60.32-18.04-14.89-12.02-22.33-27.83-22.33-47.41s7.52-34.56,22.57-46.83"/>
    <rect class="cls-2" x="1253.79" y="495.38" width="28.67" height="172.96"/>
    <polygon class="cls-2" points="1368.95 495.38 1340.28 495.38 1340.28 668.34 1502.5 668.34 1502.5 642.54 1368.95 642.54 1368.95 495.38"/>
    <path class="cls-2" d="M1195.02,585.2c8.44-8.92,12.66-20.71,12.66-35.36,0-16.72-5.18-29.98-15.53-39.78-10.35-9.79-24.61-14.69-42.76-14.69h-136.42v172.96h28.67v-65.93h87.31l46.81,65.93h33.35l-46.35-67.38c13.69-2.23,24.45-7.48,32.25-15.76M1041.65,576.6v-55.42h100.82c23.89,0,35.84,9.55,35.84,28.67,0,17.83-11.08,26.75-33.21,26.75h-103.45Z"/>
    <path class="cls-2" d="M1099.39,283.13c-20.39-15.61-45.63-23.42-75.73-23.42s-55.27,7.81-75.98,23.42c-23.57,17.84-35.36,40.61-35.36,68.32s11.62,51.05,34.88,68.57c20.39,15.45,45.87,23.17,76.45,23.17s55.58-7.64,75.97-22.93c23.25-17.52,34.88-40.46,34.88-68.81s-11.7-50.48-35.11-68.32M1082.55,398.76c-14.73,12.1-34.36,18.15-58.89,18.15s-44.44-6.01-59.25-18.03c-14.82-12.02-22.22-27.84-22.22-47.43s7.57-34.6,22.7-46.94c15.13-12.34,34.72-18.51,58.78-18.51,21.98,0,40.37,5.42,55.18,16.25,17.2,12.58,25.8,28.99,25.8,49.21s-7.37,35.2-22.1,47.31"/>
  </g>
  <g>
    <path class="cls-2" d="M439.73,829.84c-9.77-16.29-14.17-24.14-16.57-24.91h-5.36v24.91h-11.6v-63.14h17.06c16.38,0,22.52,8.14,22.52,17.83,0,8.42-5.76,14.09-11.69,16.57v.09c2.87,1.64,9.19,12.56,18.88,28.65h-13.23ZM423.54,776.48h-5.75v19.65h5.85c5.93,0,10.44-4.51,10.44-10.26,0-5.18-3.36-9.39-10.54-9.39Z"/>
    <path class="cls-2" d="M460.19,829.84v-63.14h35.17l-3.17,9.67h-20.4v16.39h20.4v9.67h-20.4v17.73h23.57v9.67h-35.17Z"/>
    <path class="cls-2" d="M520.49,807.81h-3.16v22.04h-11.6v-63.14h16.19c13.7,0,22.71,7.09,22.71,20.32,0,8.81-6.22,20.79-24.14,20.79ZM520.78,776.48h-3.46v22.22h3.64c8.24,0,11.98-4.4,11.98-11.4,0-6.13-4.03-10.83-12.16-10.83Z"/>
    <path class="cls-2" d="M553.88,829.84v-63.14h11.6v63.14h-11.6Z"/>
    <path class="cls-2" d="M624.62,829.84l-28.55-36.98c-2.69-3.56-4.5-5.95-6.23-8.64h-.18c.18,2.12.28,5.46.28,8.44v37.18h-11.6v-63.14h11.79l27.49,35.54c2.97,3.84,4.7,6.23,6.23,8.82h.2c-.2-2.77-.2-6.42-.2-9.19v-35.17h11.5v63.14h-10.73Z"/>
    <path class="cls-2" d="M690.5,776.38h-17.24v53.47h-11.69v-53.47h-18.3v-9.67h50.01l-2.77,9.67Z"/>
    <path class="cls-2" d="M732.6,829.84l-6.23-15.81h-22.51l-5.85,15.81h-11.4l24.53-63.43h8.42l25.4,63.43h-12.36ZM717.66,790.08c-1.15-3.16-1.92-5.75-2.4-7.85h-.1c-.37,2.21-1.24,4.7-2.29,7.67l-5.46,14.65h15.32l-5.06-14.47Z"/>
    <path class="cls-2" d="M770.59,829.84h-18.4v-63.14h19.16c22.91,0,34.97,12.55,34.97,31.04s-13.42,32.1-35.74,32.1ZM771.07,776.48h-7.28v43.59h7.38c16.57,0,22.79-10.44,22.79-22.14,0-12.63-7.57-21.45-22.89-21.45Z"/>
    <path class="cls-2" d="M868.77,821.71c-5.75,5.75-13.7,9.09-23.19,9.09s-16.77-2.67-22.32-7.75c-6.42-5.75-9.97-14.28-9.97-24.14s3.26-17.63,9.11-23.57c5.66-5.75,13.6-9.19,23.19-9.19,10.16,0,18.58,3.54,24.24,9.77,5.26,5.75,7.95,13.6,7.95,22.41,0,9.3-3.17,17.64-9.01,23.39ZM845.48,775.81c-11.78,0-20.02,8.52-20.02,22.71s8.24,22.81,20.02,22.81,19.93-8.54,19.93-22.81-7.85-22.71-19.93-22.71Z"/>
    <path class="cls-2" d="M945.49,829.84l-6.23-15.81h-22.51l-5.85,15.81h-11.4l24.53-63.43h8.42l25.4,63.43h-12.36ZM930.55,790.08c-1.15-3.16-1.92-5.75-2.4-7.85h-.1c-.37,2.21-1.24,4.7-2.29,7.67l-5.46,14.65h15.32l-5.06-14.47Z"/>
    <path class="cls-2" d="M1009.45,823.81c-4.41,4.41-10.93,6.99-20.32,6.99-8.91,0-15.42-2.11-19.63-6.22-4.51-4.31-6.23-10.93-6.23-17.93v-39.95h11.6v39.18c0,4.61,1.25,8.34,3.74,11.13,2.39,2.58,6.13,3.93,10.73,3.93,5.36,0,9.11-1.44,11.5-3.93,2.39-2.59,3.36-6.13,3.36-10.54v-39.77h11.6v39.38c0,7.18-2.02,13.42-6.33,17.73Z"/>
    <path class="cls-2" d="M1071.12,776.38h-17.24v53.47h-11.69v-53.47h-18.3v-9.67h50.01l-2.77,9.67Z"/>
    <path class="cls-2" d="M1128.45,821.71c-5.75,5.75-13.7,9.09-23.19,9.09s-16.77-2.67-22.32-7.75c-6.42-5.75-9.97-14.28-9.97-24.14s3.26-17.63,9.11-23.57c5.66-5.75,13.6-9.19,23.19-9.19,10.16,0,18.58,3.54,24.24,9.77,5.26,5.75,7.95,13.6,7.95,22.41,0,9.3-3.17,17.64-9.01,23.39ZM1105.16,775.81c-11.78,0-20.02,8.52-20.02,22.71s8.24,22.81,20.02,22.81,19.93-8.54,19.93-22.81-7.85-22.71-19.93-22.71Z"/>
    <path class="cls-2" d="M1199.42,829.84v-37.56c0-2.3,0-4.31.18-6.8h-.09c-.87,2.01-2.79,4.98-3.84,6.52l-12.93,20.32h-5.75l-14.18-20.6c-1.24-1.74-2.58-3.54-3.83-6.23h-.18c.18,2.59.18,4.6.18,6.52v37.85h-11.6v-63.14h10.83l17.44,25.3c1.82,2.59,3.06,4.6,4.21,6.7h.2c.95-2.01,2.11-4.21,3.93-6.99l16.09-25.01h10.93v63.14h-11.6Z"/>
    <path class="cls-2" d="M1276.33,821.71c-5.75,5.75-13.7,9.09-23.19,9.09s-16.77-2.67-22.32-7.75c-6.42-5.75-9.97-14.28-9.97-24.14s3.26-17.63,9.11-23.57c5.66-5.75,13.6-9.19,23.19-9.19,10.16,0,18.58,3.54,24.24,9.77,5.26,5.75,7.95,13.6,7.95,22.41,0,9.3-3.17,17.64-9.01,23.39ZM1253.04,775.81c-11.78,0-20.02,8.52-20.02,22.71s8.24,22.81,20.02,22.81,19.93-8.54,19.93-22.81-7.85-22.71-19.93-22.71Z"/>
    <path class="cls-2" d="M1334.17,776.38h-17.24v53.47h-11.69v-53.47h-18.3v-9.67h50.01l-2.77,9.67Z"/>
    <path class="cls-2" d="M1377.13,829.84c-9.77-16.29-14.17-24.14-16.57-24.91h-5.36v24.91h-11.6v-63.14h17.06c16.39,0,22.51,8.14,22.51,17.83,0,8.42-5.75,14.09-11.68,16.57v.09c2.87,1.64,9.19,12.56,18.88,28.65h-13.23ZM1360.94,776.48h-5.75v19.65h5.85c5.93,0,10.44-4.51,10.44-10.26,0-5.18-3.36-9.39-10.54-9.39Z"/>
    <path class="cls-2" d="M1397.58,829.84v-63.14h11.6v63.14h-11.6Z"/>
    <path class="cls-2" d="M1418.11,829.84l31.81-53.75-27.5.18-2.87-9.58h48.49l-31.14,53.65,31.33-.18v9.67h-50.11Z"/>
  </g>
  <path class="cls-2" d="M1561.35,527.1c0,15.88-12.72,28.43-28.95,28.43s-29.11-12.55-29.11-28.43,13.05-28.11,29.28-28.11,28.79,12.54,28.79,28.11M1511.31,527.26c0,12.04,9.05,21.75,21.08,21.75,12.05.17,20.92-9.71,20.92-21.75s-8.87-21.75-21.25-21.75c-11.71,0-20.76,9.53-20.76,21.75M1528.38,541.14h-7.36v-26.94c2.18-.5,6.02-1.01,11.2-1.01,5.69,0,8.2.84,10.05,2.19,1.67.99,2.85,3.01,2.85,5.69,0,3.01-2.52,5.35-5.86,6.35v.33c2.84,1.01,4.35,3.18,5.19,6.86.84,3.85,1.34,5.53,1.83,6.53h-8.02c-.84-1-1.33-3.35-2.01-6.19-.51-2.85-2.01-4.02-5.02-4.02h-2.84v10.21ZM1528.56,525.75h2.67c3.35,0,5.7-1.16,5.7-3.68,0-2.34-1.85-3.68-5.2-3.68-1.33,0-2.51.17-3.17.17v7.19Z"/>
</svg>